<svg width="22" height="7" viewBox="0 0 22 7" fill="none" xmlns="http://www.w3.org/2000/svg">
<path d="M11.0003 6.5C10.6547 6.5 10.3126 6.4224 9.9933 6.27164C9.67404 6.12087 9.38396 5.8999 9.13961 5.62132C8.89526 5.34274 8.70143 5.01203 8.56919 4.64805C8.43695 4.28407 8.36888 3.89397 8.36888 3.5C8.36888 3.10603 8.43695 2.71593 8.56919 2.35195C8.70143 1.98797 8.89526 1.65726 9.13961 1.37868C9.38396 1.1001 9.67404 0.879125 9.9933 0.728361C10.3126 0.577597 10.6547 0.5 11.0003 0.5C11.6982 0.500181 12.3674 0.816424 12.8608 1.37916C13.3542 1.9419 13.6313 2.70503 13.6311 3.50068C13.631 4.29633 13.3536 5.05932 12.86 5.6218C12.3664 6.18428 11.697 6.50018 10.9991 6.5H11.0003ZM2.63142 6.5C2.28585 6.5 1.94367 6.4224 1.62442 6.27164C1.30516 6.12087 1.01507 5.8999 0.770724 5.62132C0.526374 5.34274 0.332546 5.01203 0.200305 4.64805C0.0680636 4.28407 0 3.89397 0 3.5C0 3.10603 0.0680636 2.71593 0.200305 2.35195C0.332546 1.98797 0.526374 1.65726 0.770724 1.37868C1.01507 1.1001 1.30516 0.879125 1.62442 0.728361C1.94367 0.577597 2.28585 0.5 2.63142 0.5C3.32931 0.500181 3.99856 0.816424 4.49193 1.37916C4.98531 1.9419 5.26239 2.70503 5.26223 3.50068C5.26207 4.29633 4.98469 5.05932 4.49109 5.6218C3.99749 6.18428 3.32931 6.50018 2.63142 6.5ZM19.3692 6.5C19.0236 6.5 18.6814 6.4224 18.3622 6.27164C18.0429 6.12087 17.7528 5.8999 17.5085 5.62132C17.2641 5.34274 17.0703 5.01203 16.9381 4.64805C16.8058 4.28407 16.7378 3.89397 16.7378 3.5C16.7378 3.10603 16.8058 2.71593 16.9381 2.35195C17.0703 1.98797 17.2641 1.65726 17.5085 1.37868C17.7528 1.1001 18.0429 0.879125 18.3622 0.728361C18.6814 0.577597 19.0236 0.5 19.3692 0.5C20.0671 0.500181 20.7363 0.816424 21.2297 1.37916C21.7231 1.9419 22.0002 2.70503 22 3.50068C21.9998 4.29633 21.7225 5.05932 21.2289 5.6218C20.7353 6.18428 20.0671 6.50018 19.3692 6.5Z" fill="#242527"/>
</svg>
