<svg width="12" height="12" viewBox="0 0 12 12" fill="none" xmlns="http://www.w3.org/2000/svg">
<g clip-path="url(#clip0_1260_24)">
<path d="M8.3736 2.94198C8.32182 2.84856 8.15099 2.66455 8.04601 2.62968C7.90588 2.60809 7.98981 2.73311 7.98981 2.78671C7.95364 2.81382 7.89744 2.84422 7.87023 2.88046C7.85385 2.89452 7.91017 3.0235 8.01875 2.98206C8.12734 2.94062 8.06479 3.02422 8.13979 3.18983C8.21479 3.35544 8.36495 3.35875 8.43252 3.30859C8.51818 3.24503 8.42073 3.02706 8.3736 2.94198Z" fill="#898F9C"/>
<path d="M8.80807 3.99844L8.80774 3.99957C8.80774 4.00037 8.80787 4.00037 8.80807 3.99844Z" fill="#898F9C"/>
<path d="M10.1859 4.61952C10.1437 4.61015 10.1953 4.61952 10.1859 4.61952V4.61952Z" fill="#898F9C"/>
<path d="M6 0.75C3.10078 0.75 0.75 3.10078 0.75 6C0.75 8.89924 3.10078 11.25 6 11.25C8.89924 11.25 11.25 8.89924 11.25 6C11.25 3.10078 8.89924 0.75 6 0.75ZM4.06404 10.0646C3.93478 9.9912 3.84434 9.88744 3.80714 9.69129C3.71463 9.2036 3.80004 8.93972 4.22812 8.6543C4.42978 8.51986 4.46302 8.3573 4.62422 8.19609C4.66371 8.14594 4.76979 7.95295 4.83984 7.94297C4.92509 7.92471 5.16115 7.88374 5.20781 7.79062C5.29664 7.67002 5.49204 7.14848 5.57812 7.09683C5.71868 7.00484 5.91607 6.72277 5.77266 6.55542C5.6081 6.35285 5.37893 6.34997 5.16562 6.24368C4.97777 6.14974 4.89436 5.72147 4.75078 5.57334C4.47159 5.28891 4.04768 5.12337 3.69609 4.94756C3.50587 4.87139 3.52397 4.84781 3.375 4.99678C3.1837 5.18808 2.90407 4.94834 2.87578 4.75069C2.87367 4.68502 2.79853 4.32375 2.84297 4.296C3.26381 4.03291 2.64778 4.0935 2.59688 3.97256C2.47137 3.62116 2.90175 3.34303 3.19219 3.31397C3.51762 3.27323 3.58556 3.82713 3.71016 3.78038C3.77006 3.75047 3.7703 3.48989 3.77812 3.4335C3.80782 3.24532 3.86222 3.21616 4.04531 3.14815C4.25855 3.06895 4.42179 2.96962 4.64766 2.93194C4.90561 2.85705 5.12384 2.89601 5.32266 2.73038C5.41378 2.66205 5.47978 2.76741 5.56641 2.78663C5.75388 2.8241 5.79375 2.52647 5.79375 2.41397C5.79295 2.30463 5.8234 2.2117 5.68359 2.09522C5.50064 1.95298 5.2376 2.07485 5.09062 2.22178C4.91311 2.38666 4.70726 2.3753 4.76719 2.09053C4.78205 1.98663 5.00646 1.86584 5.09531 1.80928C5.18203 1.7572 5.23369 1.86839 5.33906 1.84209C5.49326 1.8078 5.5508 1.95307 5.73281 1.95459C5.80859 1.93746 6.07959 1.79332 5.9347 1.5007C5.95648 1.50049 5.9782 1.5 6 1.5C6.04348 1.5 6.08688 1.5008 6.1302 1.50202C6.19594 1.71016 5.99039 1.8874 6.09375 2.14922C6.29977 2.65254 6.46856 2.21986 6.67266 1.98516C6.73943 1.91838 6.78124 1.93334 6.89062 1.9125C6.9585 1.90118 7.05598 1.69523 7.08734 1.63167C7.55727 1.74772 8.00509 1.93974 8.41313 2.20015C8.23859 2.21871 8.19403 2.16743 8.1967 2.37305C8.19769 2.45079 8.20366 2.68521 8.32031 2.70469C8.5143 2.72754 8.47924 2.86481 8.66135 2.88867C8.8358 2.91155 8.72735 3.0657 8.79848 3.21797C8.87801 3.45766 8.33428 3.52973 8.22891 3.56484C7.90922 3.67158 8.3775 4.13695 8.58516 4.0875C8.65118 4.071 8.87144 4.04292 8.88673 3.96874C8.88647 3.96117 8.84369 3.71065 8.86641 3.68203C8.90234 3.6367 8.98648 3.61298 9.11897 3.68801C9.43242 3.8655 9.59114 4.29035 9.9603 4.37461C10.0106 4.38607 10.0976 4.37109 10.1594 4.42226C10.2117 4.49292 10.345 4.61951 10.1859 4.61951C9.97455 4.57256 9.86292 4.63964 9.68906 4.50527C9.50782 4.36519 9.39509 4.25002 9.15586 4.24568C8.94984 4.24195 8.76492 4.15617 8.55262 4.1906C8.43427 4.2098 8.31736 4.25648 8.20312 4.29138C8.09491 4.32743 8.07398 4.52025 7.96406 4.54216C7.5078 4.64953 7.60638 5.08519 7.52407 5.43075C7.49241 5.56345 7.38286 5.92301 7.50237 6.04216C7.71612 6.24968 7.96603 6.53517 8.27993 6.58036C8.44882 6.60466 8.81791 6.47311 8.93203 6.64451C8.98036 6.74069 9.10657 6.57349 9.14062 6.65859C9.22648 6.91613 9.04071 7.08483 9.03898 7.32776C9.0364 7.68408 9.25409 7.80987 8.9625 8.1281C8.64277 8.44702 8.86095 8.8497 8.68359 9.22966C8.58886 9.42506 8.57091 9.69593 8.42878 9.78694C8.11621 9.98714 7.77992 10.1476 7.42767 10.2647C6.8036 10.4718 6.13498 10.5382 5.48196 10.4629C5.13896 10.4234 4.8017 10.3443 4.47696 10.227C4.38862 10.195 4.30634 10.1683 4.23152 10.1402C4.17519 10.1161 4.11935 10.0909 4.06404 10.0646ZM3.0867 9.42959C3.07573 9.42028 3.06478 9.41093 3.05391 9.40151C2.97277 9.33108 2.89413 9.25782 2.81813 9.18188C2.73911 9.10288 2.66301 9.02102 2.58998 8.93646L2.58752 8.93358C2.57259 8.91628 2.55806 8.89875 2.54341 8.88122C1.33205 7.41729 1.15451 5.27353 2.17031 3.63516C2.31277 3.77761 2.0742 4.05759 2.34609 4.24453C2.46619 4.32905 2.58096 4.29513 2.55703 4.45078C2.53376 4.60193 2.68254 4.59926 2.70469 4.73203C2.7713 5.02334 3.15485 5.16895 2.93672 5.49609C2.72302 5.79199 2.53847 6.12255 2.7 6.49922C2.75283 6.63656 2.8856 6.77714 2.98645 6.87994C3.16957 7.06664 3.15935 6.95466 3.15935 7.19062C3.1557 7.29312 3.28266 7.39915 3.26951 7.46484C3.24605 7.6526 3.20145 7.8382 3.1781 8.025C3.1361 8.6962 3.17508 9.35302 3.67732 9.85547C3.49055 9.74283 3.31085 9.61526 3.13901 9.47367C3.12146 9.45911 3.10402 9.44441 3.0867 9.42959Z" fill="#898F9C"/>
</g>
<defs>
<clipPath id="clip0_1260_24">
<rect width="12" height="12" fill="white"/>
</clipPath>
</defs>
</svg>
