<svg width="28" height="28" viewBox="0 0 28 28" fill="none" xmlns="http://www.w3.org/2000/svg">
<path d="M22.75 6.125H21.875V5.25C21.875 3.80249 20.6975 2.625 19.25 2.625H5.25C3.80249 2.625 2.625 3.80249 2.625 5.25V19.25C2.625 20.6975 3.80249 21.875 5.25 21.875H6.125V22.75C6.125 24.1975 7.30249 25.375 8.75 25.375H22.75C24.1975 25.375 25.375 24.1975 25.375 22.75V8.75C25.375 7.30249 24.1975 6.125 22.75 6.125ZM5.25 4.375H19.25C19.7328 4.375 20.125 4.76761 20.125 5.25V10.1707L14.787 16.2721L9.3191 11.5856C8.97216 11.2878 8.45434 11.3075 8.13138 11.6313L4.375 15.3877V5.25C4.375 4.76761 4.76717 4.375 5.25 4.375ZM23.625 22.75C23.625 23.2324 23.2328 23.625 22.75 23.625H8.75C8.26718 23.625 7.875 23.2324 7.875 22.75V21.875H19.25C20.6975 21.875 21.875 20.6975 21.875 19.25V7.875H22.75C23.2328 7.875 23.625 8.26761 23.625 8.75V22.75Z" fill="#0DE671"/>
<path d="M14 11.375C15.4475 11.375 16.625 10.1975 16.625 8.75C16.625 7.30249 15.4475 6.125 14 6.125C12.5525 6.125 11.375 7.30249 11.375 8.75C11.375 10.1975 12.5525 11.375 14 11.375Z" fill="#0DE671"/>
</svg>
