<svg width="24" height="24" viewBox="0 0 24 24" fill="none" xmlns="http://www.w3.org/2000/svg">
<path fill-rule="evenodd" clip-rule="evenodd" d="M11.1082 20.7579C8.87811 19.4654 3.16765 14.8014 2.19153 10.668C1.31012 6.93556 3.54708 3.05747 7.33511 3.00174C7.41331 3.00059 7.49265 3 7.57317 3C9.09809 3 10.4595 3.76167 11.2576 4.32479C11.6936 4.63244 12.3064 4.63244 12.7424 4.3248C13.5405 3.76167 14.9019 3 16.4268 3C16.5073 3 16.5867 3.00059 16.6649 3.00174C20.4529 3.05747 22.6899 6.93556 21.8085 10.668C20.8324 14.8014 15.1219 19.4654 12.8918 20.7579C12.3347 21.0807 11.6653 21.0807 11.1082 20.7579ZM20.3486 10.3232C19.9606 11.9664 18.5443 13.9176 16.7551 15.7222C15.0026 17.49 13.1205 18.8916 12.1396 19.4601C12.0478 19.5133 11.9522 19.5133 11.8604 19.4601C10.8795 18.8916 8.99743 17.49 7.24485 15.7222C5.45573 13.9176 4.0394 11.9664 3.65137 10.3232C2.91939 7.2236 4.81395 4.53899 7.35718 4.50157C7.42793 4.50053 7.49992 4.5 7.57317 4.5C8.63436 4.5 9.68295 5.04957 10.3928 5.55044C11.3473 6.22389 12.6527 6.22389 13.6072 5.55044C14.317 5.04957 15.3656 4.5 16.4268 4.5C16.5001 4.5 16.5721 4.50053 16.6428 4.50157C19.1861 4.53899 21.0806 7.2236 20.3486 10.3232Z" fill="black"/>
</svg>
